<svg width="82" height="55" viewBox="0 0 82 55" fill="none" xmlns="http://www.w3.org/2000/svg">
<path d="M0.272 0.303997H5.648V25.392C5.648 26.8 5.62667 28.3787 5.584 30.128C5.54133 31.8773 5.47733 33.4773 5.392 34.928C5.34933 36.3787 5.28533 37.4453 5.2 38.128H5.456L30.608 0.303997H37.008V46H31.632V21.168C31.632 19.5893 31.6533 17.904 31.696 16.112C31.7813 14.32 31.8667 12.6773 31.952 11.184C32.0373 9.69066 32.1013 8.624 32.144 7.984H31.888L6.672 46H0.272V0.303997Z" fill="#F7E1DB"/>
<circle cx="32.5" cy="28.5" r="23" stroke="#080202"/>
<path d="M81.5 13.0625C80.3125 13.125 79.3542 13.2917 78.625 13.5625C77.9167 13.8125 77.2604 14.2396 76.6562 14.8438C76.1979 15.2812 75.8542 15.7708 75.625 16.3125C75.3958 16.8333 75.2396 17.5 75.1562 18.3125C75.0104 19.3958 74.9375 20.6771 74.9375 22.1562V45.1875C74.9375 47.3333 75.0625 48.9271 75.3125 49.9688C75.5625 51.0104 76.0104 51.8438 76.6562 52.4688C77.8021 53.5729 79.4167 54.1771 81.5 54.2812V55H61.5312V54.2812C62.7396 54.2188 63.7083 54.0521 64.4375 53.7812C65.1875 53.4896 65.8542 53.0521 66.4375 52.4688C67.0833 51.8021 67.5208 50.9583 67.75 49.9375C68 48.8958 68.125 47.3125 68.125 45.1875V17.25L52.0312 55H51.375L35.375 17.8125V45.1875C35.375 47.3333 35.4896 48.9167 35.7188 49.9375C35.9688 50.9583 36.4167 51.8021 37.0625 52.4688C37.6458 53.0729 38.3021 53.5104 39.0312 53.7812C39.7812 54.0521 40.75 54.2188 41.9375 54.2812V55H27.5312V54.2812C28.7188 54.2188 29.6771 54.0521 30.4062 53.7812C31.1562 53.5104 31.8229 53.0729 32.4062 52.4688C33.0521 51.8021 33.4896 50.9583 33.7188 49.9375C33.9688 48.8958 34.0938 47.3125 34.0938 45.1875V22.1562C34.0938 21.1979 34.0625 20.2917 34 19.4375C33.8958 17.8958 33.6562 16.7708 33.2812 16.0625C32.7604 15.0833 32.0417 14.3646 31.125 13.9062C30.2292 13.4271 29.0312 13.1458 27.5312 13.0625V12.3438H41.0938L54.625 45.75L68.6562 12.3438H81.5V13.0625Z" fill="#2B201C"/>
</svg>
